# xmcd
# Copyright (C) 1995-1998 Ti Kan
#
# Track frame offsets:
#       150
#       15092
#       86251
#       160878
#       243342
#
# Disc length: 3263 seconds
#
# Revision: 0
# Processed by: cddbd v1.5.2PL0 Copyright (c) Steve Scherf et al.
# Submitted via: CD-Import v1.0
#
DISCID=250cbd05
DTITLE=Michael Ende - Momo 2
DYEAR=1900
DGENRE=
TTITLE0=Anmodi Momo2
TTITLE1=Momo2.1
TTITLE2=Momo2.2
TTITLE3=Momo2.3
TTITLE4=Abmodi Momo2
EXTD=
EXTT0=
EXTT1=
EXTT2=
EXTT3=
EXTT4=
PLAYORDER=
